<?xml version="1.0" encoding="UTF-8"?> <svg xmlns="http://www.w3.org/2000/svg" xmlns:xlink="http://www.w3.org/1999/xlink" version="1.1" id="Capa_1" x="0px" y="0px" width="600px" height="600px" viewBox="0 0 600 600" style="enable-background:new 0 0 600 600;" xml:space="preserve"> <style type="text/css"> .st0{fill:#FFFFFF;} </style> <path class="st0" d="M112,488.5v-80.8c0-3.6,1.9-5.5,5.5-5.5h27.9c24.4,0,37.2,9,37.2,26.8c0,15.4-9.5,23.3-22.1,26.2v0.6 c4.4,0,8.7,2.8,11.5,7.8c4.8,8.3,10,18.1,12.6,22.3c2.4,3.8-0.3,8.3-4.4,8.3h-7.6c-8.5,0-9.5-0.5-12.4-5.2 c-6.3-10.4-14.3-26.9-17.7-26.9h-7.6v26.3c0,5.1-2.9,5.7-11.5,5.7C114.9,494.2,112,493.6,112,488.5 M144.8,444c9,0,14.5-3.7,14.5-12 c0-7.6-4.3-11.4-13.5-11.4h-11.1V444H144.8z"></path> <path class="st0" d="M246.7,405.3c-1.6-2.1-7.8-3.1-14-3.1c-6.2,0-12.4,1-14,3.1c-8.4,11.1-25.7,67.5-25.7,83.1 c0,5.1,3.1,5.7,11.6,5.7c8.7,0,10.9-0.7,11.6-5.7c0.5-3.3,1.2-7.4,2.1-12h29c0.9,4.6,1.6,8.7,2.1,12c0.7,5,2.9,5.7,11.6,5.7 c8.5,0,11.6-0.6,11.6-5.7C272.4,472.9,255.1,416.5,246.7,405.3 M222.2,458.1c3.5-15,7.7-30.2,10.5-36.5c2.9,6.3,7,21.5,10.5,36.5 H222.2z"></path> <path class="st0" d="M283.4,488.3v-80.7c0-3.6,1.9-5.5,5.5-5.5h26.6c28.8,0,44,12.5,44,45.8c0,33.3-15.3,45.8-44,45.8h-26.6 C285.3,493.8,283.4,491.9,283.4,488.3 M315.4,475.4c14.5,0,20.9-6.2,20.9-27.4c0-21.1-6.4-27.4-20.9-27.4h-9.3v54.7H315.4z"></path> <path class="st0" d="M456.4,400.5c-25.8,0-40.3,14.6-40.3,47.1c0,32.3,14.5,47.8,40.3,47.8c26,0,40.6-15.5,40.6-47.8 C497,415.2,482.4,400.5,456.4,400.5 M456.4,476.8c-11.5,0-17.2-8.9-17.2-29.1c0-20.2,5.7-28.4,17.2-28.4c11.7,0,17.6,8.2,17.6,28.4 C474,467.8,468.1,476.8,456.4,476.8"></path> <path class="st0" d="M393.3,403.2l-19.2,11.1c-5,2.9-5,10.2,0,13.1l7.9,4.6v56.5c0,5.1,2.8,5.7,11.3,5.7c8.4,0,11.3-0.6,11.3-5.7 v-56.6v-22.2v-0.5c0-0.1,0-0.1,0-0.2C404.2,403.7,398.2,400.4,393.3,403.2"></path> <path class="st0" d="M393.4,373.7c-11.6,0-13.6,3.3-13.6,11.8c0,9,2,11.6,13.6,11.6c11.6,0,13.4-2.6,13.4-11.6 C406.8,376.3,405,373.7,393.4,373.7"></path> <path class="st0" d="M131,531.5c0-13,5.6-17.5,13.8-17.5c8.4,0,13.9,4.4,13.9,17.5c0,13-5.6,17.5-13.9,17.5 C136.5,549,131,544.6,131,531.5 M148.6,531.5c0-8.1-1.8-9.3-3.9-9.3c-2.1,0-3.7,1.2-3.7,9.3c0,8.1,1.7,9.3,3.7,9.3 C146.8,540.9,148.6,539.7,148.6,531.5"></path> <path class="st0" d="M187.4,544.1c0,3.1-0.3,4.2-1.9,4.2h-19.9c-1.3,0-1.8-0.7-2.1-2.9c-0.3-2.2-0.2-2.8,1.4-4.4 c5.5-5.5,12.4-13,12.4-16.3c0-1.6-1.3-2.1-3.5-2.1c-3.8,0-6.2,1.8-7.7,1.8c-1.5,0-2.6-2.9-2.6-5c0-2.1,0.8-3.3,3.6-4.2 c2.1-0.7,4.9-1.1,7.7-1.1c9,0,12.3,3.7,12.3,9.1c0,6.1-6.4,12.3-11.2,16.8h9.5C187.1,539.9,187.4,541,187.4,544.1"></path> <path class="st0" d="M118.9,514.8l-8.3,4.8c-2.2,1.3-2.2,4.4,0,5.7l3.4,2V546c0,2.2,1.2,2.5,4.9,2.5c3.7,0,4.9-0.3,4.9-2.5v-18.7 v-9.6v-0.2c0,0,0,0,0-0.1C123.6,515,121,513.6,118.9,514.8"></path> <path class="st0" d="M216.8,514.8l-8.3,4.8c-2.2,1.3-2.2,4.4,0,5.7l3.4,2V546c0,2.2,1.2,2.5,4.9,2.5c3.7,0,4.9-0.3,4.9-2.5v-18.7 v-9.6v-0.2c0,0,0,0,0-0.1C221.5,515,218.9,513.6,216.8,514.8"></path> <path class="st0" d="M194.1,543c0-4.2,1.1-6,5.5-6c4.3,0,5.7,1.5,5.7,6c0,4.3-1.4,5.8-5.7,5.8C195.2,548.8,194.1,547.3,194.1,543"></path> <path class="st0" d="M322.7,326.2c5.7-15.4,1.8-33.7-9.8-45c-11.3-11.6-29.5-15.7-45-9.9c-7.6,2.8-14.7,7.8-19.8,14.4 c0,0-0.1,0.1-0.1,0.1c-5.4,6.8-7.7,15.6-6.8,24.2c0.4,3.7,1.1,7.4,2.1,11.1c1.3,4.9,3.4,9.5,6,13.9c7.7,13,21.7,21.2,36.8,20.2 c0.1,0,0.2,0,0.3,0C303.1,353,317.3,341.2,322.7,326.2"></path> <path class="st0" d="M425,203.3l-98.6-56.9c-1.3,10.8-4.4,21.3-8.8,31.3c-3.4,7.8-7.9,15.1-13.1,21.8c1.6,0.8,3.2,1.6,4.6,2.4 l27.7,15.8l27.6,16.1c2.3,1.3,4.6,3,6.9,4.6c1.2,0.7,2.1,1.8,3.2,2.7c1,1,2.2,1.8,3,2.9c3.8,4.2,6.7,9.1,8.8,14.3 c3.9,10.5,4.1,22.3,0.1,32.6c-0.8,2.6-2.3,5-3.5,7.4c-1.7,2.2-3,4.6-5,6.5c-3.2,3.9-7.5,6.8-11.8,9.2l58.7-33.9 C454.5,263.1,454.5,220.4,425,203.3"></path> <path class="st0" d="M224.6,152.9c6.4-5.8,13.4-10.9,20.9-15c2-1.1,4.1-2.1,6.2-3.1c-2.9-13.1-3.1-23.4-1-32.1L171.5,57v15.9 c0,24.7,9.9,47.9,26.9,64.9L224.6,152.9z"></path> <path class="st0" d="M194.9,203.3c2.2-9.2,5.6-18.1,10.2-26.4c4.1-7.1,9.2-13.6,14.8-19.5l-70.8-40.9v12.4 c0,32.4,17.1,62.3,44.9,78.8C194.3,206.3,194.6,204.8,194.9,203.3"></path> <path class="st0" d="M384.8,59.1c-21.5,6.4-42.2,16.4-55.3,24.9c-13.7-7.3-26.1-9.8-47.1-7.1c-17.4,10.9-29.3,23.4-29.9,57.6 c6.2-2.8,12.7-5.2,19.3-6.9c9.1-2.5,18.2-3.8,27-6.2c4.4-1.1,8.8-2.4,13-4.1c4.2-1.8,8.4-3.7,11.7-6.9c7.8-8.8,7.9-11.1,9.6-16.1 c11.1-10.1,35.5-25.4,52.3-33.5C386.2,60.2,385.8,58.8,384.8,59.1 M305.6,102.2c-5.5,0-10-4.5-10-10h20 C315.6,97.7,311.1,102.2,305.6,102.2"></path> <path class="st0" d="M314.9,160.2c-5.1,3.4-10.8,5.7-16.5,7.8c-11.4,4.1-23,7.3-34.2,11.5c-11.1,4.2-21.9,9.3-30.8,16.6 c-9,7.3-16,16.7-19.5,27.7c-3.6,10.9-4.3,22.8-3.1,34.4c1.1,11.7,4.3,23.2,8.5,34.2c4.4,11,9.9,21.6,16.7,31.3 c0.3,0.5,0.7,0.9,1,1.4c-2.9-4.5-5.5-9.3-7.6-14.2c-6.6-15.5-9.8-33.1-6-50.2c2-8.5,5.7-16.7,11.6-23.4c2.9-3.4,6.2-6.2,9.7-8.8 c3.4-2.6,7.1-4.8,10.8-6.9c13.6-7.7,28.6-11.9,40.3-20.6c6.9-7.6,12.9-16.2,17.5-25.5c3.3-6.7,6-13.8,8.1-21.1 C319.5,156.8,317.3,158.7,314.9,160.2"></path> </svg> 